<svg width="22" height="22" viewBox="0 0 22 22" fill="none" xmlns="http://www.w3.org/2000/svg">
<path fill-rule="evenodd" clip-rule="evenodd" d="M5.07753 2.74266C5.07753 1.34968 3.93921 0.217422 2.53981 0.217422C1.13623 0.217422 0 1.34968 0 2.74266C0 4.13668 1.13623 5.26789 2.53981 5.26789C3.93921 5.26789 5.07753 4.13668 5.07753 2.74266ZM4.72768 21.1973H0.348806V7.18338H4.72768V21.1973ZM11.6747 7.18338H7.47437V21.1973H11.8491V14.2646C11.8491 12.4374 12.1989 10.6674 14.4776 10.6674C16.7229 10.6674 16.7532 12.7574 16.7532 14.383V21.1973H21.129V13.5105C21.129 9.7377 20.3102 6.83539 15.876 6.83539C13.7456 6.83539 12.318 7.99673 11.7331 9.09886H11.6747V7.18338Z" fill="white"/>
</svg>
