<svg width="23" height="23" viewBox="0 0 23 23" fill="none" xmlns="http://www.w3.org/2000/svg">
<path d="M11.5 4.57764e-05C8.3768 4.57764e-05 7.98516 0.0132955 6.75855 0.0692387C5.53451 0.125079 4.69855 0.319511 3.96704 0.603747C3.21081 0.897637 2.56949 1.29088 1.93018 1.93019C1.29084 2.5695 0.897591 3.21089 0.603735 3.96712C0.319431 4.69859 0.125068 5.53456 0.0691587 6.7586C0.0132155 7.98521 0 8.37684 0 11.5001C0 14.6232 0.0132155 15.0149 0.0691587 16.2415C0.125068 17.4655 0.319431 18.3015 0.603735 19.033C0.897625 19.7892 1.29087 20.4305 1.93018 21.0699C2.56952 21.7092 3.21081 22.1025 3.96704 22.3963C4.69855 22.6806 5.53451 22.875 6.75855 22.9309C7.98516 22.9868 8.3768 23 11.5 23C14.6232 23 15.0148 22.9868 16.2414 22.9309C17.4655 22.875 18.3015 22.6806 19.0329 22.3963C19.7892 22.1025 20.4305 21.7092 21.0699 21.0699C21.7092 20.4305 22.1024 19.7892 22.3963 19.033C22.6805 18.3015 22.875 17.4655 22.9308 16.2415C22.9868 15.0149 23 14.6232 23 11.5001C23 8.37684 22.9868 7.98521 22.9308 6.7586C22.875 5.53456 22.6805 4.69859 22.3963 3.96712C22.1024 3.21089 21.7092 2.5695 21.0699 1.93019C20.4305 1.29088 19.7892 0.897637 19.0329 0.603747C18.3015 0.319511 17.4655 0.125079 16.2414 0.0692387C15.0148 0.0132955 14.6232 4.57764e-05 11.5 4.57764e-05ZM11.5 2.0721C14.5706 2.0721 14.9343 2.08385 16.147 2.13917C17.2682 2.19029 17.8772 2.37763 18.2823 2.53512C18.8192 2.74376 19.2023 2.99294 19.6046 3.39536C20.0071 3.79778 20.2563 4.1809 20.4649 4.71766C20.6224 5.12289 20.8098 5.73183 20.8609 6.85306C20.9162 8.0657 20.9279 8.42943 20.9279 11.5C20.9279 14.5707 20.9162 14.9344 20.8609 16.147C20.8098 17.2683 20.6224 17.8772 20.4649 18.2824C20.2563 18.8192 20.0071 19.2023 19.6046 19.6047C19.2023 20.0072 18.8191 20.2563 18.2824 20.465C17.8772 20.6225 17.2682 20.8098 16.147 20.8609C14.9346 20.9162 14.5709 20.928 11.5 20.928C8.42915 20.928 8.06552 20.9162 6.85301 20.8609C5.73175 20.8098 5.12285 20.6225 4.71765 20.465C4.18082 20.2563 3.79774 20.0072 3.39535 19.6047C2.99293 19.2023 2.74372 18.8192 2.53508 18.2824C2.37759 17.8772 2.19028 17.2683 2.13913 16.147C2.0838 14.9344 2.07206 14.5707 2.07206 11.5C2.07206 8.42943 2.0838 8.0657 2.13913 6.85306C2.19028 5.7318 2.37759 5.12289 2.53508 4.7177C2.74372 4.18086 2.99293 3.79778 3.39532 3.3954C3.79774 2.99294 4.18085 2.74376 4.71762 2.53512C5.12285 2.37763 5.73179 2.19029 6.85301 2.13917C8.06565 2.08385 8.42939 2.0721 11.5 2.0721" fill="white"/>
<path d="M11.4999 15.3327C9.38278 15.3327 7.66654 13.6164 7.66654 11.4994C7.66654 9.38221 9.38278 7.66598 11.4999 7.66598C13.617 7.66598 15.3332 9.38221 15.3332 11.4994C15.3332 13.6164 13.617 15.3327 11.4999 15.3327ZM11.4999 5.59393C8.2384 5.59393 5.59448 8.23784 5.59448 11.4994C5.59448 14.7608 8.2384 17.4047 11.4999 17.4047C14.7614 17.4047 17.4053 14.7608 17.4053 11.4994C17.4053 8.23784 14.7614 5.59393 11.4999 5.59393V5.59393ZM19.0187 5.3606C19.0187 6.12278 18.4008 6.74059 17.6386 6.74059C16.8765 6.74059 16.2586 6.12278 16.2586 5.3606C16.2586 4.59845 16.8765 3.98058 17.6386 3.98058C18.4008 3.98058 19.0187 4.59845 19.0187 5.3606" fill="white"/>
</svg>
