<svg width="25" height="20" viewBox="0 0 25 20" fill="none" xmlns="http://www.w3.org/2000/svg">
<path fill-rule="evenodd" clip-rule="evenodd" d="M24.1306 2.96073C23.2805 3.3378 22.5641 3.35027 21.8038 2.97735C22.7844 2.39357 22.8293 1.98429 23.1834 0.881125C22.2664 1.42232 21.2503 1.81497 20.1694 2.02792C19.3047 1.11069 18.0703 0.536255 16.7064 0.536255C14.0852 0.536255 11.961 2.65118 11.961 5.2564C11.961 5.62724 12.0028 5.98769 12.0832 6.33256C8.13876 6.13623 4.64235 4.25711 2.30201 1.40051C1.89367 2.09752 1.6587 2.90879 1.6587 3.77408C1.6587 5.41221 2.4973 6.8561 3.77033 7.70269C2.99231 7.67776 2.26128 7.46585 1.6211 7.11267C1.62006 7.13241 1.62006 7.15111 1.62006 7.17188C1.62006 9.45924 3.25652 11.3664 5.42768 11.8006C4.73216 11.9886 3.99904 12.0177 3.28367 11.8816C3.88834 13.7566 5.64073 15.1215 7.71685 15.16C5.68668 16.7431 3.1688 17.4027 0.69165 17.1139C2.7918 18.4529 5.28565 19.234 7.9654 19.234C16.6949 19.234 21.4665 12.0416 21.4665 5.80383C21.4665 5.59919 21.4634 5.39663 21.454 5.19303C22.3803 4.52823 23.4946 3.90808 24.1306 2.96073" fill="white"/>
</svg>
